<svg xmlns="http://www.w3.org/2000/svg" viewBox="0 0 18 18" width="18" height="18">
  <!-- Shield + sync arrows -->
  <path d="M9 1C6.5 1 3.5 2 2 3.5V9c0 4 3.2 6.8 7 8 3.8-1.2 7-4 7-8V3.5C14.5 2 11.5 1 9 1z" 
        fill="black" fill-opacity="0.85"/>
  <!-- Circular arrows (sync) -->
  <path d="M12 8.5A3.5 3.5 0 0 0 6.5 7" fill="none" stroke="white" stroke-width="1.2" stroke-linecap="round"/>
  <path d="M6 10.5A3.5 3.5 0 0 0 11.5 12" fill="none" stroke="white" stroke-width="1.2" stroke-linecap="round"/>
  <polygon points="6.5,5.5 5.5,7.5 7.5,7.5" fill="white"/>
  <polygon points="11.5,13.5 12.5,11.5 10.5,11.5" fill="white"/>
</svg>
